<?xml version="1.0" encoding="UTF-8" standalone="no"?>
<svg
   xmlns:dc="http://purl.org/dc/elements/1.1/"
   xmlns:cc="http://creativecommons.org/ns#"
   xmlns:rdf="http://www.w3.org/1999/02/22-rdf-syntax-ns#"
   xmlns:svg="http://www.w3.org/2000/svg"
   xmlns="http://www.w3.org/2000/svg"
   id="svg1343"
   version="1.1"
   viewBox="0 0 105.25627 17.04966"
   height="17.04966mm"
   width="105.25627mm">
  <defs
     id="defs1337" />
  <metadata
     id="metadata1340">
    <rdf:RDF>
      <cc:Work
         rdf:about="">
        <dc:format>image/svg+xml</dc:format>
        <dc:type
           rdf:resource="http://purl.org/dc/dcmitype/StillImage" />
        <dc:title></dc:title>
      </cc:Work>
    </rdf:RDF>
  </metadata>
  <g
     transform="translate(-28.258767,-114.60612)"
     id="layer1">
    <g
       id="text3026-7-36-0"
       style="font-style:normal;font-weight:normal;font-size:33.32061386px;line-height:125%;font-family:Sans;letter-spacing:0px;word-spacing:0px;fill:#ffffff;fill-opacity:1;stroke:none"
       transform="matrix(0.288436,0,0,0.288436,46.354838,113.31296)">
      <path
         id="path3076-6-7-3"
         style="font-variant:normal;font-weight:500;font-stretch:normal;font-family:Ubuntu;-inkscape-font-specification:'Ubuntu Medium';letter-spacing:8.33015347px;fill:#ffffff"
         d="m 37.279882,9.9154331 c 0.488694,0.8441449 1.032931,1.8770829 1.63271,3.0988169 0.599761,1.221775 1.210639,2.510171 1.832634,3.865191 0.621973,1.33284 1.23285,2.698984 1.832634,4.098436 0.621971,1.377263 1.188421,2.654552 1.699351,3.83187 0.510901,-1.177318 1.066244,-2.454607 1.666031,-3.83187 0.599754,-1.399452 1.210631,-2.765596 1.832634,-4.098436 0.621966,-1.35502 1.232843,-2.643416 1.832633,-3.865191 0.599751,-1.221734 1.143987,-2.254672 1.632711,-3.0988169 h 3.798549 c 0.199898,1.6882659 0.388715,3.4875769 0.566451,5.3979399 0.177684,1.888183 0.33318,3.831884 0.466489,5.831107 0.155469,1.977033 0.288751,3.976268 0.399847,5.99771 0.133255,1.999241 0.244324,3.954049 0.333206,5.864428 h -4.131756 c -0.08888,-2.68786 -0.199947,-5.453468 -0.333206,-8.296832 -0.111092,-2.843348 -0.288801,-5.59785 -0.53313,-8.263513 -0.244373,0.510933 -0.533152,1.12181 -0.866336,1.832634 -0.333227,0.710854 -0.688647,1.488334 -1.06626,2.332443 -0.377653,0.82192 -0.766393,1.677148 -1.166221,2.565687 -0.377653,0.888559 -0.755286,1.754894 -1.132901,2.599008 -0.355438,0.821915 -0.688643,1.599395 -0.999618,2.332443 -0.31101,0.710844 -0.577574,1.321722 -0.799695,1.832634 h -3.132138 c -0.22215,-0.510912 -0.488715,-1.132897 -0.799695,-1.865954 -0.311004,-0.733048 -0.655317,-1.510528 -1.032939,-2.332443 -0.35543,-0.844114 -0.733064,-1.71045 -1.132901,-2.599008 -0.377643,-0.888539 -0.755276,-1.743767 -1.1329,-2.565687 -0.377643,-0.821896 -0.733062,-1.588269 -1.06626,-2.299123 -0.333214,-0.733038 -0.621992,-1.343915 -0.866336,-1.832634 -0.244358,2.665663 -0.433175,5.420165 -0.56645,8.263513 -0.111076,2.843364 -0.211037,5.608972 -0.299886,8.296832 h -4.131756 c 0.08885,-1.910379 0.188814,-3.887401 0.299885,-5.931069 0.13328,-2.043656 0.266563,-4.065105 0.399848,-6.064351 0.155493,-2.021437 0.322096,-3.976244 0.499809,-5.864429 0.177706,-1.888148 0.366523,-3.631925 0.56645,-5.2313359 h 3.898512" />
      <path
         id="path3078-3-5-6"
         style="font-variant:normal;font-weight:500;font-stretch:normal;font-family:Ubuntu;-inkscape-font-specification:'Ubuntu Medium';letter-spacing:8.33015347px;fill:#ffffff"
         d="m 73.491581,21.444365 c -6e-6,1.266194 0.15549,2.421308 0.466489,3.465344 0.310985,1.02184 0.75526,1.899282 1.332825,2.632329 0.599762,0.710844 1.321708,1.266187 2.165839,1.666031 0.844112,0.39985 1.799302,0.599774 2.865573,0.599771 1.044032,3e-6 1.988115,-0.199921 2.832252,-0.599771 0.844106,-0.399844 1.554945,-0.955187 2.13252,-1.666031 0.599752,-0.733047 1.055133,-1.610489 1.366145,-2.632329 0.310973,-1.044036 0.466469,-2.19915 0.466488,-3.465344 -1.9e-5,-1.26617 -0.155515,-2.410177 -0.466488,-3.432023 -0.311012,-1.04403 -0.766393,-1.921472 -1.366145,-2.632328 -0.577575,-0.733035 -1.288414,-1.299485 -2.13252,-1.699352 -0.844137,-0.399827 -1.78822,-0.599751 -2.832252,-0.599771 -1.066271,2e-5 -2.021461,0.199944 -2.865573,0.599771 -0.844131,0.399867 -1.566077,0.966317 -2.165839,1.699352 -0.577565,0.73307 -1.02184,1.610512 -1.332825,2.632328 -0.310999,1.021846 -0.466495,2.165853 -0.466489,3.432023 m 18.026452,0 c -2.4e-5,1.977033 -0.299909,3.72081 -0.899656,5.231337 -0.57758,1.510539 -1.377274,2.776721 -2.399084,3.79855 -0.999639,0.99962 -2.176966,1.754886 -3.531985,2.265802 -1.355055,0.510915 -2.798947,0.766373 -4.33168,0.766374 -1.53276,-10e-7 -2.987759,-0.255459 -4.365001,-0.766374 -1.355045,-0.510916 -2.543479,-1.266182 -3.565305,-2.265802 -0.999623,-1.021829 -1.799317,-2.288011 -2.399084,-3.79855 -0.599774,-1.510527 -0.899659,-3.254304 -0.899657,-5.231337 -2e-6,-1.977009 0.299883,-3.709679 0.899657,-5.198015 0.599767,-1.510516 1.410568,-2.776699 2.432404,-3.79855 1.04404,-1.021811 2.243581,-1.788184 3.598627,-2.299123 1.355028,-0.5108923 2.787813,-0.7663501 4.298359,-0.7663737 1.51052,2.36e-5 2.943305,0.2554814 4.298359,0.7663737 1.35502,0.510939 2.532347,1.277312 3.531985,2.299123 1.02181,1.021851 1.832611,2.288034 2.432405,3.79855 0.599747,1.488336 0.899632,3.221006 0.899656,5.198015" />
      <path
         id="path3080-7-3-7"
         style="font-variant:normal;font-weight:500;font-stretch:normal;font-family:Ubuntu;-inkscape-font-specification:'Ubuntu Medium';letter-spacing:8.33015347px;fill:#ffffff"
         d="m 111.38545,33.273183 c -1.22176,0 -2.45462,-0.04443 -3.69859,-0.133282 -1.24397,-0.06664 -2.33244,-0.222137 -3.26542,-0.466489 V 10.248639 c 0.4887,-0.08883 1.01072,-0.16658 1.56607,-0.233244 0.55534,-0.088832 1.12179,-0.1554731 1.69935,-0.1999237 0.57755,-0.044404 1.144,-0.077725 1.69935,-0.099962 0.57755,-0.02219 1.12179,-0.033297 1.63271,-0.033321 1.39946,2.33e-5 2.69896,0.1110919 3.89852,0.3332067 1.19952,0.199946 2.23246,0.544259 3.09881,1.032939 0.88854,0.488724 1.57716,1.132922 2.06588,1.932596 0.48869,0.799714 0.73304,1.788224 0.73306,2.965534 -2e-5,1.088489 -0.26659,2.021466 -0.7997,2.798931 -0.51093,0.777495 -1.23288,1.399478 -2.16584,1.865954 1.39945,0.466501 2.43239,1.155126 3.09882,2.065878 0.66639,0.910773 0.9996,2.065887 0.99962,3.465345 -2e-5,2.376874 -0.86636,4.165078 -2.59901,5.364619 -1.73269,1.177328 -4.38723,1.765992 -7.96363,1.765992 M 108.5532,22.610587 v 7.030649 c 0.46648,0.04443 0.96629,0.07775 1.49943,0.09996 0.53312,0.02222 1.02182,0.03332 1.4661,0.03332 0.86633,3e-6 1.66602,-0.05553 2.39909,-0.166603 0.75525,-0.111065 1.39945,-0.299882 1.93259,-0.566451 0.55533,-0.288774 0.9885,-0.666407 1.29951,-1.1329 0.33319,-0.466483 0.49979,-1.066254 0.49981,-1.799314 -2e-5,-1.310602 -0.47761,-2.221365 -1.43279,-2.73229 -0.9552,-0.510906 -2.27692,-0.766364 -3.96515,-0.766374 h -3.69859 m 0,-3.298741 h 2.96553 c 1.59938,1.4e-5 2.85446,-0.222123 3.76523,-0.666412 0.91075,-0.466474 1.36613,-1.288381 1.36615,-2.465726 -2e-5,-1.110669 -0.47761,-1.899256 -1.43279,-2.365763 -0.93299,-0.466469 -2.15474,-0.699713 -3.66527,-0.699733 -0.6442,2e-5 -1.22176,0.01113 -1.73267,0.03332 -0.48871,0.02223 -0.91077,0.05555 -1.26618,0.09996 v 6.064352" />
      <path
         id="path3082-2-5-3"
         style="font-variant:normal;font-weight:500;font-stretch:normal;font-family:Ubuntu;-inkscape-font-specification:'Ubuntu Medium';letter-spacing:8.33015347px;fill:#ffffff"
         d="m 134.61824,9.9154331 h 4.1984 V 33.006618 h -4.1984 V 9.9154331" />
      <path
         id="path3084-4-6-2"
         style="font-variant:normal;font-weight:500;font-stretch:normal;font-family:Ubuntu;-inkscape-font-specification:'Ubuntu Medium';letter-spacing:8.33015347px;fill:#ffffff"
         d="m 158.30816,29.874481 c 1.51053,3e-6 2.61011,-0.255455 3.29874,-0.766374 0.68862,-0.510912 1.03293,-1.232858 1.03294,-2.16584 -1e-5,-0.555337 -0.12219,-1.032932 -0.36652,-1.432787 -0.22215,-0.399839 -0.55536,-0.755259 -0.99962,-1.066259 -0.42207,-0.333198 -0.9441,-0.633083 -1.56607,-0.899657 -0.622,-0.288769 -1.33283,-0.56644 -2.13252,-0.833015 -0.7997,-0.288768 -1.57718,-0.59976 -2.33244,-0.932977 -0.73306,-0.355409 -1.38837,-0.788576 -1.96592,-1.299504 -0.55535,-0.510903 -1.01073,-1.121781 -1.36614,-1.832634 -0.33321,-0.710825 -0.49982,-1.566053 -0.49981,-2.565687 -1e-5,-2.088073 0.72194,-3.720782 2.16584,-4.898131 1.44388,-1.1995187 3.4098,-1.7992891 5.89774,-1.7993127 1.44389,2.36e-5 2.72118,0.1666265 3.83187,0.4998092 1.13289,0.3110155 2.02144,0.6553275 2.66565,1.0329395 l -1.2995,3.398702 c -0.75528,-0.422042 -1.5883,-0.744141 -2.49905,-0.966298 -0.88856,-0.222117 -1.81043,-0.333186 -2.76561,-0.333206 -1.13291,2e-5 -2.02145,0.233264 -2.66565,0.699733 -0.62199,0.466507 -0.93298,1.121812 -0.93297,1.965916 -1e-5,0.510933 0.1,0.955208 0.29988,1.332825 0.22213,0.355435 0.52202,0.677534 0.89966,0.966298 0.39984,0.288793 0.85522,0.555358 1.36614,0.799694 0.53312,0.244366 1.11068,0.47761 1.73268,0.699733 1.08846,0.399861 2.05475,0.810815 2.89889,1.232863 0.86632,0.399859 1.58827,0.888561 2.16584,1.466107 0.59975,0.555354 1.05514,1.221765 1.36614,1.999237 0.31098,0.755275 0.46648,1.677145 0.46649,2.765611 -1e-5,2.088096 -0.74417,3.709697 -2.23248,4.864809 -1.46612,1.132901 -3.62085,1.699351 -6.4642,1.699352 -0.9552,-10e-7 -1.83264,-0.06664 -2.63233,-0.199924 -0.77748,-0.111069 -1.47721,-0.255458 -2.09919,-0.433168 -0.59978,-0.17771 -1.1218,-0.355419 -1.56607,-0.53313 -0.44428,-0.199923 -0.7997,-0.377632 -1.06626,-0.53313 l 1.23286,-3.432023 c 0.59977,0.333211 1.41057,0.666416 2.4324,0.999619 1.02183,0.333209 2.25469,0.499812 3.69859,0.499809" />
      <path
         id="path3086-3-2-2"
         style="font-variant:normal;font-weight:500;font-stretch:normal;font-family:Ubuntu;-inkscape-font-specification:'Ubuntu Medium';letter-spacing:8.33015347px;fill:#ffffff"
         d="m 186.76605,20.144862 c 0.99961,-1.666017 1.97701,-3.354259 2.93221,-5.064734 0.95518,-1.710438 1.82151,-3.432002 2.59901,-5.1646949 h 4.66489 c -1.24399,2.3546779 -2.5435,4.6982249 -3.89852,7.0306499 -1.33284,2.310243 -2.76562,4.642683 -4.29835,6.997329 v 9.063206 h -4.1984 v -8.996565 c -1.53276,-2.376859 -2.97665,-4.731514 -4.33168,-7.06397 -1.35504,-2.332425 -2.65455,-4.675972 -3.89851,-7.0306499 h 4.93145 c 0.77747,1.7326929 1.6327,3.4542569 2.56568,5.1646949 0.93297,1.710475 1.91038,3.398717 2.93222,5.064734" />
      <path
         id="path3088-0-91-1"
         style="font-variant:normal;font-weight:500;font-stretch:normal;font-family:Ubuntu;-inkscape-font-specification:'Ubuntu Medium';letter-spacing:8.33015347px;fill:#ffffff"
         d="m 223.7186,33.006618 c -0.75528,-1.266182 -1.5994,-2.621219 -2.53236,-4.065114 -0.93299,-1.466102 -1.89929,-2.932207 -2.8989,-4.398321 -0.99963,-1.488311 -2.02146,-2.921096 -3.06549,-4.29836 -1.02184,-1.399451 -1.99925,-2.654526 -2.93222,-3.765229 v 16.527024 h -4.13175 V 9.9154331 h 3.43202 c 0.88854,0.9329989 1.84373,2.0436849 2.86557,3.3320609 1.02183,1.266202 2.04366,2.587919 3.0655,3.965154 1.04403,1.377266 2.04365,2.765624 2.99886,4.165076 0.97738,1.377263 1.84372,2.665658 2.599,3.865191 V 9.9154331 h 4.16508 V 33.006618 h -3.56531" />
      <path
         id="path3090-3-2-5"
         style="font-variant:normal;font-weight:500;font-stretch:normal;font-family:Ubuntu;-inkscape-font-specification:'Ubuntu Medium';letter-spacing:8.33015347px;fill:#ffffff"
         d="m 251.41585,33.506428 c -1.73268,-10e-7 -3.28764,-0.266565 -4.66488,-0.799695 -1.37726,-0.533129 -2.54348,-1.310609 -3.49867,-2.332443 -0.95519,-1.044042 -1.68825,-2.310224 -2.19916,-3.79855 -0.51092,-1.488313 -0.76638,-3.198769 -0.76637,-5.131375 -1e-5,-1.932582 0.28877,-3.643038 0.86633,-5.131374 0.59977,-1.488303 1.41057,-2.743378 2.43241,-3.765229 1.02182,-1.044025 2.22136,-1.832612 3.59862,-2.365764 1.37725,-0.5331065 2.85446,-0.7996711 4.43164,-0.7996947 0.95518,2.36e-5 1.82152,0.077772 2.59901,0.2332443 0.77747,0.1333057 1.45499,0.2888017 2.03256,0.4664884 0.57754,0.177733 1.05513,0.366549 1.43279,0.566451 0.37761,0.199945 0.64418,0.344335 0.79969,0.433168 l -1.23286,3.432023 c -0.53315,-0.333188 -1.29952,-0.64418 -2.29912,-0.932977 -0.97742,-0.310973 -2.04368,-0.466469 -3.19878,-0.466489 -0.99963,2e-5 -1.93261,0.17773 -2.79893,0.53313 -0.86635,0.333225 -1.62162,0.844141 -2.26581,1.532748 -0.62199,0.688643 -1.11069,1.554978 -1.4661,2.599008 -0.35543,1.04406 -0.53314,2.254708 -0.53313,3.631947 -1e-5,1.221766 0.13327,2.343559 0.39984,3.365382 0.28878,1.021839 0.72194,1.910388 1.29951,2.665649 0.57755,0.733058 1.3106,1.310615 2.19916,1.732672 0.88854,0.399851 1.9548,0.599774 3.19878,0.599771 1.4883,3e-6 2.69895,-0.144386 3.63194,-0.433168 0.93296,-0.310988 1.65491,-0.599767 2.16584,-0.866336 l 1.13291,3.432023 c -0.26659,0.177711 -0.63312,0.355421 -1.09958,0.53313 -0.4443,0.17771 -0.97743,0.35542 -1.59939,0.53313 -0.62201,0.155496 -1.32174,0.277671 -2.0992,0.366527 -0.7775,0.111068 -1.61051,0.166602 -2.49905,0.166603" />
      <path
         id="path3092-5-70-3"
         style="font-variant:normal;font-weight:500;font-stretch:normal;font-family:Ubuntu;-inkscape-font-specification:'Ubuntu Medium';letter-spacing:8.33015347px;fill:#ffffff"
         d="m 273.6105,21.444365 c -10e-6,1.266194 0.15549,2.421308 0.46649,3.465344 0.31098,1.02184 0.75526,1.899282 1.33282,2.632329 0.59977,0.710844 1.32171,1.266187 2.16584,1.666031 0.84412,0.39985 1.79931,0.599774 2.86558,0.599771 1.04403,3e-6 1.98811,-0.199921 2.83225,-0.599771 0.8441,-0.399844 1.55494,-0.955187 2.13252,-1.666031 0.59975,-0.733047 1.05513,-1.610489 1.36614,-2.632329 0.31098,-1.044036 0.46647,-2.19915 0.46649,-3.465344 -2e-5,-1.26617 -0.15551,-2.410177 -0.46649,-3.432023 -0.31101,-1.04403 -0.76639,-1.921472 -1.36614,-2.632328 -0.57758,-0.733035 -1.28842,-1.299485 -2.13252,-1.699352 -0.84414,-0.399827 -1.78822,-0.599751 -2.83225,-0.599771 -1.06627,2e-5 -2.02146,0.199944 -2.86558,0.599771 -0.84413,0.399867 -1.56607,0.966317 -2.16584,1.699352 -0.57756,0.73307 -1.02184,1.610512 -1.33282,2.632328 -0.311,1.021846 -0.4665,2.165853 -0.46649,3.432023 m 18.02645,0 c -2e-5,1.977033 -0.29991,3.72081 -0.89965,5.231337 -0.57758,1.510539 -1.37728,2.776721 -2.39909,3.79855 -0.99964,0.99962 -2.17696,1.754886 -3.53198,2.265802 -1.35506,0.510915 -2.79895,0.766373 -4.33168,0.766374 -1.53276,-10e-7 -2.98776,-0.255459 -4.365,-0.766374 -1.35505,-0.510916 -2.54348,-1.266182 -3.56531,-2.265802 -0.99962,-1.021829 -1.79932,-2.288011 -2.39908,-3.79855 -0.59978,-1.510527 -0.89966,-3.254304 -0.89966,-5.231337 0,-1.977009 0.29988,-3.709679 0.89966,-5.198015 0.59976,-1.510516 1.41057,-2.776699 2.4324,-3.79855 1.04404,-1.021811 2.24358,-1.788184 3.59863,-2.299123 1.35503,-0.5108923 2.78781,-0.7663501 4.29836,-0.7663737 1.51052,2.36e-5 2.9433,0.2554814 4.29836,0.7663737 1.35502,0.510939 2.53234,1.277312 3.53198,2.299123 1.02181,1.021851 1.83261,2.288034 2.43241,3.79855 0.59974,1.488336 0.89963,3.221006 0.89965,5.198015" />
    </g>
    <g
       style="fill:#ff6600;fill-opacity:1;stroke:none"
       transform="matrix(0.25252365,0,0,-0.25665671,115.78028,140.43918)"
       id="g2972-7-9-3">
      <path
         id="path2974-6-3-8"
         style="fill:#ff6600;fill-opacity:1;fill-rule:nonzero;stroke:none"
         d="m -346.58739,54.39739 c 3.58588,-0.922473 7.01219,-1.568339 10.42811,-1.275571 3.41588,0.287383 6.54856,1.114535 9.70375,2.173193 3.15253,1.061362 6.11227,2.392825 8.88997,3.983575 2.77771,1.596131 4.84815,2.780493 7.13076,4.464866 2.28257,1.684372 4.26595,3.302665 5.95551,4.849469 1.68686,1.549513 3.02788,2.81501 4.01757,3.796517 l -16.37859,16.381864 52.38307,6.964934 -7.09438,-53.085234 -14.41071,15.48713 c -4.08452,-3.701981 -8.30954,-6.744688 -12.22306,-8.839676 -3.91356,-2.094987 -7.22486,-3.136839 -10.84796,-4.031968 -3.61772,-0.895151 -7.07176,-1.29548 -10.35956,-1.209071 -3.28772,0.09178 -6.31842,0.47067 -9.09479,1.139324 -6.54547,1.570349 -12.42798,4.752455 -18.09969,9.200648" />
    </g>
    <g
       id="text4172-5-6-2-6-2"
       style="font-style:normal;font-variant:normal;font-weight:normal;font-stretch:normal;font-size:5.79490376px;line-height:125%;font-family:Ubuntu;-inkscape-font-specification:Ubuntu;letter-spacing:0px;word-spacing:0px;fill:#ffffff;fill-opacity:1;stroke:none"
       transform="matrix(0.39503519,0,0,0.32855318,-81.820539,102.91941)">
      <path
         id="path3079-9-06-8"
         style="font-style:italic;font-size:20.86165619px;-inkscape-font-specification:'Ubuntu Italic';fill:#ffffff"
         d="m 324.60396,51.733485 c -0.22254,0.305982 -0.50069,0.702353 -0.83446,1.189114 -0.3338,0.486782 -0.69541,1.022231 -1.08481,1.606348 -0.38943,0.584134 -0.79276,1.196075 -1.20997,1.835826 -0.41725,0.625855 -0.82058,1.237797 -1.20998,1.835825 -0.38943,0.584131 -0.75103,1.133487 -1.08481,1.648071 -0.33379,0.500683 -0.605,0.910961 -0.8136,1.230838 h -1.62721 c -0.0556,-0.333784 -0.13213,-0.751017 -0.22948,-1.2517 -0.0834,-0.514583 -0.18081,-1.06394 -0.29206,-1.64807 -0.11127,-0.598029 -0.22949,-1.20997 -0.35465,-1.835826 -0.11127,-0.63975 -0.22949,-1.251692 -0.35465,-1.835826 -0.11127,-0.584117 -0.21558,-1.112612 -0.31292,-1.585486 -0.0974,-0.486761 -0.18081,-0.883132 -0.25034,-1.189114 -0.58414,1.794112 -1.15435,3.643843 -1.71066,5.5492 -0.55631,1.905369 -1.09872,3.838547 -1.62721,5.799541 h -2.00272 c 0.33379,-1.251698 0.68148,-2.51035 1.04309,-3.77596 0.3755,-1.27951 0.75101,-2.531208 1.12653,-3.755098 0.38941,-1.237783 0.77187,-2.440804 1.14739,-3.609067 0.38941,-1.16824 0.76492,-2.273907 1.12653,-3.317003 h 1.98185 c 0.16689,0.611956 0.34074,1.335159 0.52154,2.169612 0.1947,0.834478 0.38246,1.710667 0.56327,2.628569 0.1947,0.904014 0.36855,1.808018 0.52154,2.712015 0.16688,0.904011 0.30596,1.724569 0.41723,2.461676 0.50067,-0.751015 1.05003,-1.578526 1.64807,-2.482537 0.61193,-0.903998 1.22388,-1.808002 1.83583,-2.712016 0.61193,-0.917902 1.20301,-1.787137 1.77324,-2.607707 0.58411,-0.834453 1.10565,-1.557656 1.56463,-2.169612 h 1.94013 c -0.23645,2.350425 -0.55633,4.74256 -0.95964,7.17641 -0.38943,2.419957 -0.82057,4.84686 -1.29342,7.280718 h -2.02358 c 0.41722,-2.002717 0.79968,-3.942849 1.14739,-5.820402 0.34768,-1.891449 0.65365,-3.734227 0.91791,-5.528339" />
    </g>
    <g
       id="text3032-2-5"
       style="font-style:normal;font-variant:normal;font-weight:normal;font-stretch:normal;font-size:12px;line-height:125%;font-family:'Liberation Sans';-inkscape-font-specification:'Liberation Sans';text-align:start;letter-spacing:0.80000001px;word-spacing:0px;text-anchor:start;fill:#ffffff;fill-opacity:1;stroke:none"
       transform="matrix(0.2822222,0,0,0.2822222,24.73657,-160.474)">
      <path
         id="path3043-61-8"
         style="font-size:16px;fill:#ffffff"
         d="m 120.05595,1031.715 -1.25781,-3.2188 h -5.01562 l -1.26563,3.2188 h -1.54687 l 4.49218,-11.0078 h 1.69532 l 4.42187,11.0078 h -1.52344 m -3.11718,-8.0157 c -0.0833,-0.2083 -0.16407,-0.4192 -0.24219,-0.6328 -0.0729,-0.2135 -0.13803,-0.4062 -0.19531,-0.5781 -0.0573,-0.1771 -0.10678,-0.3229 -0.14844,-0.4375 -0.0365,-0.1198 -0.0573,-0.1927 -0.0625,-0.2187 -0.0104,0.026 -0.0339,0.099 -0.0703,0.2187 -0.0365,0.1198 -0.086,0.2682 -0.14844,0.4453 -0.0573,0.1771 -0.12501,0.3724 -0.20313,0.586 -0.0729,0.2135 -0.14844,0.4244 -0.22656,0.6328 l -1.40625,3.6172 h 4.11719 l -1.41406,-3.6329" />
      <path
         id="path3045-8-0"
         style="font-size:16px;fill:#ffffff"
         d="m 128.84033,1030.3556 c -0.26042,0.5417 -0.60678,0.9297 -1.03906,1.1641 -0.42709,0.2343 -0.95834,0.3515 -1.59375,0.3515 -1.06771,0 -1.85417,-0.3594 -2.35938,-1.0781 -0.5,-0.7188 -0.75,-1.8073 -0.75,-3.2656 0,-2.9479 1.03646,-4.4219 3.10938,-4.4219 0.64062,0 1.17447,0.1172 1.60156,0.3516 0.42708,0.2343 0.77083,0.6067 1.03125,1.1171 h 0.0156 c 0,-0.052 -0.003,-0.1328 -0.008,-0.2421 0,-0.1146 -0.003,-0.2318 -0.008,-0.3516 -1e-5,-0.125 -1e-5,-0.2422 0,-0.3516 -1e-5,-0.1093 -1e-5,-0.1875 0,-0.2343 v -3.2735 h 1.40625 v 9.8516 c -1e-5,0.2031 -1e-5,0.3984 0,0.5859 0.005,0.1875 0.0104,0.3594 0.0156,0.5156 0.005,0.1563 0.0104,0.2917 0.0156,0.4063 0.005,0.1094 0.0104,0.1875 0.0156,0.2344 h -1.34375 c -0.0104,-0.052 -0.0208,-0.125 -0.0312,-0.2188 -0.005,-0.099 -0.013,-0.2109 -0.0234,-0.3359 -0.005,-0.125 -0.0104,-0.2552 -0.0156,-0.3906 -0.005,-0.1407 -0.008,-0.2787 -0.008,-0.4141 h -0.0312 m -4.26563,-2.875 c 0,0.5833 0.0365,1.0833 0.10938,1.5 0.0729,0.4167 0.1901,0.7604 0.35156,1.0312 0.16146,0.2657 0.36719,0.461 0.61719,0.586 0.25,0.125 0.55468,0.1875 0.91406,0.1875 0.36979,0 0.69531,-0.06 0.97656,-0.1797 0.28646,-0.1198 0.52344,-0.3125 0.71094,-0.5781 0.1927,-0.2709 0.33854,-0.6224 0.4375,-1.0547 0.099,-0.4323 0.14843,-0.961 0.14844,-1.586 -1e-5,-0.5989 -0.0495,-1.1041 -0.14844,-1.5156 -0.099,-0.4166 -0.2448,-0.7526 -0.4375,-1.0078 -0.19271,-0.2552 -0.42969,-0.4375 -0.71094,-0.5469 -0.27604,-0.1145 -0.59635,-0.1718 -0.96093,-0.1718 -0.34376,0 -0.64063,0.06 -0.89063,0.1796 -0.25,0.1198 -0.45833,0.3125 -0.625,0.5782 -0.16667,0.2656 -0.29167,0.612 -0.375,1.039 -0.0781,0.4219 -0.11719,0.9349 -0.11719,1.5391" />
      <path
         id="path3047-7-8"
         style="font-size:16px;fill:#ffffff"
         d="m 136.92158,1031.715 h -1.66406 l -3.07032,-8.4532 h 1.5 l 1.85938,5.5 c 0.0365,0.1146 0.0781,0.2553 0.125,0.4219 0.0521,0.1615 0.10416,0.3307 0.15625,0.5078 0.0521,0.1771 0.099,0.349 0.14062,0.5157 0.0469,0.1614 0.0859,0.2968 0.11719,0.4062 0.0312,-0.1094 0.0703,-0.2448 0.11719,-0.4062 0.0521,-0.1667 0.10416,-0.336 0.15625,-0.5079 0.0521,-0.1718 0.10416,-0.3385 0.15625,-0.5 0.0573,-0.1666 0.10677,-0.3072 0.14844,-0.4218 l 1.92187,-5.5157 h 1.49219 l -3.15625,8.4532" />
      <path
         id="path3049-9-6"
         style="font-size:16px;fill:#ffffff"
         d="m 142.00283,1021.465 v -1.3438 h 1.40625 v 1.3438 h -1.40625 m 0,10.25 v -8.4532 h 1.40625 v 8.4532 h -1.40625" />
      <path
         id="path3051-2-9"
         style="font-size:16px;fill:#ffffff"
         d="m 152.71689,1029.379 c -1e-5,0.3959 -0.0781,0.75 -0.23437,1.0625 -0.15105,0.3073 -0.37241,0.5677 -0.66407,0.7813 -0.29167,0.2083 -0.65104,0.3698 -1.07812,0.4844 -0.42188,0.1093 -0.90625,0.164 -1.45313,0.164 -0.48958,0 -0.93229,-0.039 -1.32812,-0.1172 -0.39063,-0.073 -0.73438,-0.1927 -1.03125,-0.3593 -0.29688,-0.1667 -0.54688,-0.3855 -0.75,-0.6563 -0.19792,-0.276 -0.34375,-0.612 -0.4375,-1.0078 l 1.24219,-0.2422 c 0.11979,0.4531 0.36718,0.7865 0.74218,1 0.375,0.2083 0.89583,0.3125 1.5625,0.3125 0.30208,0 0.57813,-0.021 0.82813,-0.062 0.2552,-0.042 0.47395,-0.112 0.65625,-0.2109 0.18229,-0.1042 0.32291,-0.2396 0.42187,-0.4063 0.10417,-0.1719 0.15625,-0.3828 0.15625,-0.6328 0,-0.2552 -0.0599,-0.4635 -0.17968,-0.625 -0.1198,-0.1667 -0.28647,-0.3047 -0.5,-0.4141 -0.21355,-0.1093 -0.47397,-0.2031 -0.78125,-0.2812 -0.30209,-0.083 -0.63542,-0.1745 -1,-0.2734 -0.33855,-0.089 -0.67448,-0.1875 -1.00782,-0.2969 -0.33333,-0.1094 -0.63541,-0.2526 -0.90625,-0.4297 -0.26562,-0.1823 -0.48177,-0.4063 -0.64843,-0.6719 -0.16667,-0.2656 -0.25,-0.5989 -0.25,-1 0,-0.7708 0.27343,-1.3567 0.82031,-1.7578 0.55208,-0.4062 1.35416,-0.6094 2.40625,-0.6094 0.93229,0 1.67187,0.1641 2.21875,0.4922 0.55208,0.3281 0.90103,0.8542 1.04687,1.5781 l -1.26562,0.1563 c -0.0469,-0.2188 -0.13282,-0.401 -0.25781,-0.5469 -0.12501,-0.151 -0.27605,-0.2708 -0.45313,-0.3594 -0.17709,-0.094 -0.37761,-0.1588 -0.60156,-0.1953 -0.21875,-0.042 -0.44792,-0.062 -0.6875,-0.062 -0.63542,0 -1.10417,0.096 -1.40625,0.2891 -0.30209,0.1927 -0.45313,0.4844 -0.45313,0.875 0,0.2292 0.0547,0.4193 0.16407,0.5703 0.11458,0.1458 0.27083,0.2708 0.46875,0.375 0.20312,0.099 0.44531,0.1875 0.72656,0.2656 0.28125,0.073 0.59114,0.1511 0.92969,0.2344 0.22395,0.057 0.45312,0.1198 0.6875,0.1875 0.23437,0.062 0.46093,0.1406 0.67968,0.2344 0.22396,0.089 0.43229,0.1953 0.625,0.3203 0.19791,0.1198 0.36979,0.2656 0.51563,0.4375 0.14583,0.1719 0.26041,0.3724 0.34375,0.6016 0.0885,0.2291 0.1328,0.4947 0.13281,0.7968" />
      <path
         id="path3053-0-3"
         style="font-size:16px;fill:#ffffff"
         d="m 162.32158,1027.4806 c -1e-5,1.4792 -0.32553,2.5807 -0.97656,3.3047 -0.65105,0.7239 -1.59636,1.0859 -2.83594,1.0859 -0.58855,0 -1.11459,-0.089 -1.57813,-0.2656 -0.46354,-0.1771 -0.85677,-0.4479 -1.17968,-0.8125 -0.31771,-0.3646 -0.5625,-0.8203 -0.73438,-1.3672 -0.16667,-0.5521 -0.25,-1.2005 -0.25,-1.9453 0,-2.9167 1.26302,-4.375 3.78906,-4.375 0.65625,0 1.22135,0.091 1.69532,0.2734 0.47916,0.1823 0.86978,0.4558 1.17187,0.8203 0.30729,0.3646 0.53385,0.8204 0.67969,1.3672 0.14582,0.5469 0.21874,1.1849 0.21875,1.9141 m -1.47656,0 c -1e-5,-0.6563 -0.0521,-1.1979 -0.15625,-1.625 -0.099,-0.4271 -0.24741,-0.7682 -0.44532,-1.0234 -0.19271,-0.2552 -0.42969,-0.4323 -0.71093,-0.5313 -0.28126,-0.1042 -0.59897,-0.1562 -0.95313,-0.1562 -0.35938,0 -0.6849,0.055 -0.97656,0.164 -0.28646,0.1042 -0.53125,0.2865 -0.73438,0.5469 -0.20312,0.2552 -0.35937,0.5964 -0.46875,1.0234 -0.10416,0.4271 -0.15625,0.961 -0.15625,1.6016 0,0.6562 0.0573,1.2005 0.17188,1.6328 0.11458,0.4271 0.27083,0.7682 0.46875,1.0234 0.20312,0.2553 0.4401,0.4349 0.71094,0.5391 0.27603,0.1042 0.57551,0.1563 0.89843,0.1563 0.35937,0 0.68489,-0.05 0.97657,-0.1485 0.29166,-0.1041 0.53905,-0.2838 0.74218,-0.539 0.20312,-0.2553 0.35937,-0.599 0.46875,-1.0313 0.10937,-0.4323 0.16406,-0.9766 0.16407,-1.6328" />
      <path
         id="path3055-2-3"
         style="font-size:16px;fill:#ffffff"
         d="m 164.91064,1031.715 v -6.4844 c 0,-0.1771 -0.003,-0.3568 -0.008,-0.5391 0,-0.1875 -0.003,-0.3672 -0.008,-0.539 -0.005,-0.1719 -0.0104,-0.3334 -0.0156,-0.4844 -0.005,-0.151 -0.0104,-0.2865 -0.0156,-0.4063 h 1.32812 c 0.005,0.1198 0.0104,0.2579 0.0156,0.4141 0.0104,0.1511 0.0182,0.3073 0.0234,0.4688 0.0104,0.1614 0.0156,0.3177 0.0156,0.4687 0.005,0.1458 0.008,0.2708 0.008,0.375 h 0.0312 c 0.099,-0.3229 0.20312,-0.6016 0.3125,-0.8359 0.11458,-0.2396 0.24739,-0.4349 0.39844,-0.586 0.15104,-0.1562 0.33072,-0.2708 0.53906,-0.3437 0.20833,-0.078 0.46093,-0.1172 0.75781,-0.1172 0.11458,0 0.22396,0.01 0.32813,0.031 0.10416,0.016 0.18489,0.031 0.24219,0.047 v 1.2891 c -0.0938,-0.026 -0.20313,-0.044 -0.32813,-0.055 -0.125,-0.016 -0.26563,-0.023 -0.42187,-0.023 -0.32292,0 -0.59897,0.073 -0.82813,0.2187 -0.22396,0.1458 -0.40886,0.349 -0.55469,0.6094 -0.14062,0.2552 -0.24479,0.5625 -0.3125,0.9219 -0.0677,0.3541 -0.10156,0.7421 -0.10156,1.164 v 4.4063 h -1.40625" />
      <path
         id="path3057-3-7"
         style="font-size:16px;fill:#ffffff"
         d="m 174.66376,1031.715 c -0.19792,0.5104 -0.40104,0.9687 -0.60937,1.375 -0.20313,0.4114 -0.4323,0.7604 -0.6875,1.0468 -0.25521,0.2917 -0.53907,0.5131 -0.85156,0.6641 -0.3125,0.1563 -0.67188,0.2344 -1.07813,0.2344 -0.17708,0 -0.34114,-0.01 -0.49219,-0.016 -0.15104,-0.011 -0.30989,-0.034 -0.47656,-0.07 v -1.0546 c 0.099,0.016 0.21094,0.026 0.33594,0.031 0.125,0.01 0.23177,0.016 0.32031,0.016 0.41146,0 0.79427,-0.1536 1.14844,-0.4609 0.35416,-0.3073 0.66406,-0.7969 0.92969,-1.4688 l 0.13281,-0.3359 -3.35156,-8.4141 h 1.5 l 1.78125,4.6719 c 0.0521,0.1406 0.11718,0.3281 0.19531,0.5625 0.0833,0.2344 0.16406,0.4688 0.24219,0.7031 0.0833,0.2344 0.15624,0.4454 0.21875,0.6329 0.0625,0.1875 0.099,0.3046 0.10937,0.3515 0.0156,-0.057 0.0521,-0.1693 0.10938,-0.3359 0.0625,-0.1719 0.1302,-0.362 0.20312,-0.5703 0.0781,-0.2084 0.15625,-0.4193 0.23438,-0.6328 0.0781,-0.2136 0.14322,-0.3985 0.19531,-0.5547 l 1.65625,-4.8282 h 1.48437 l -3.25,8.4532" />
      <path
         id="path3059-7-4"
         style="font-size:16px;fill:#ffffff"
         d="m 185.4122,1035.1056 v -14.9844 h 1.29688 v 14.9844 h -1.29688" />
      <path
         id="path3061-59-3"
         style="font-size:16px;fill:#ffffff"
         d="m 206.80555,1031.715 -2.85938,-4.5703 h -3.42968 v 4.5703 h -1.49219 v -11.0078 h 5.17969 c 0.62499,0 1.17707,0.073 1.65625,0.2187 0.48436,0.1406 0.89061,0.3464 1.21875,0.6172 0.32811,0.2708 0.57811,0.6016 0.75,0.9922 0.17186,0.3906 0.2578,0.8307 0.25781,1.3203 -1e-5,0.349 -0.0521,0.6927 -0.15625,1.0312 -0.099,0.3386 -0.25782,0.6485 -0.47656,0.9297 -0.21876,0.2813 -0.49741,0.5235 -0.83594,0.7266 -0.33855,0.2031 -0.7448,0.3463 -1.21875,0.4297 l 3.125,4.7422 h -1.71875 m -0.21875,-7.8438 c -1e-5,-0.3333 -0.0573,-0.6224 -0.17188,-0.8672 -0.11459,-0.2448 -0.28125,-0.4479 -0.5,-0.6093 -0.21875,-0.1667 -0.48438,-0.2891 -0.79687,-0.3672 -0.31251,-0.083 -0.66667,-0.125 -1.0625,-0.125 h -3.53906 v 4.0625 h 3.60156 c 0.42708,0 0.79687,-0.052 1.10937,-0.1563 0.3125,-0.1094 0.5677,-0.2578 0.76563,-0.4453 0.20312,-0.1875 0.35155,-0.4088 0.44531,-0.6641 0.099,-0.2552 0.14843,-0.5312 0.14844,-0.8281" />
      <path
         id="path3063-2-7"
         style="font-size:16px;fill:#ffffff"
         d="m 212.23054,1027.7853 c 0,0.4427 0.0443,0.8515 0.13282,1.2265 0.0937,0.3698 0.23437,0.6901 0.42187,0.961 0.19271,0.2656 0.4375,0.4739 0.73438,0.625 0.29687,0.1458 0.65364,0.2187 1.07031,0.2187 0.60937,0 1.09635,-0.1224 1.46094,-0.3672 0.36978,-0.2447 0.61978,-0.5546 0.75,-0.9296 l 1.23437,0.3515 c -0.0885,0.2344 -0.21355,0.4714 -0.375,0.711 -0.15625,0.2343 -0.36719,0.4479 -0.63281,0.6406 -0.26563,0.1875 -0.59896,0.3437 -1,0.4687 -0.39584,0.1198 -0.87501,0.1797 -1.4375,0.1797 -1.25,0 -2.20313,-0.3724 -2.85938,-1.1172 -0.65104,-0.7448 -0.97656,-1.8515 -0.97656,-3.3203 0,-0.7916 0.099,-1.4609 0.29688,-2.0078 0.19791,-0.5521 0.46875,-1 0.8125,-1.3437 0.34375,-0.3438 0.74479,-0.5912 1.20312,-0.7422 0.45833,-0.1563 0.94792,-0.2344 1.46875,-0.2344 0.70833,0 1.29948,0.1146 1.77344,0.3437 0.47916,0.2292 0.86197,0.5469 1.14844,0.9532 0.29166,0.401 0.49739,0.875 0.61718,1.4218 0.125,0.5469 0.1875,1.1381 0.1875,1.7735 v 0.1875 h -6.03125 m 4.57813,-1.0781 c -0.0781,-0.8907 -0.30469,-1.5391 -0.67969,-1.9454 -0.375,-0.4114 -0.91407,-0.6171 -1.61719,-0.6171 -0.23437,0 -0.48177,0.039 -0.74218,0.1171 -0.25521,0.073 -0.49219,0.2058 -0.71094,0.3985 -0.21875,0.1927 -0.40365,0.4557 -0.55469,0.789 -0.15104,0.3282 -0.23698,0.7474 -0.25781,1.2579 h 4.5625" />
      <path
         id="path3065-2-1"
         style="font-size:16px;fill:#ffffff"
         d="m 227.20242,1029.379 c 0,0.3959 -0.0781,0.75 -0.23437,1.0625 -0.15105,0.3073 -0.3724,0.5677 -0.66406,0.7813 -0.29168,0.2083 -0.65105,0.3698 -1.07813,0.4844 -0.42188,0.1093 -0.90625,0.164 -1.45312,0.164 -0.48959,0 -0.9323,-0.039 -1.32813,-0.1172 -0.39063,-0.073 -0.73438,-0.1927 -1.03125,-0.3593 -0.29688,-0.1667 -0.54688,-0.3855 -0.75,-0.6563 -0.19792,-0.276 -0.34375,-0.612 -0.4375,-1.0078 l 1.24219,-0.2422 c 0.11979,0.4531 0.36718,0.7865 0.74219,1 0.37499,0.2083 0.89583,0.3125 1.5625,0.3125 0.30207,0 0.57812,-0.021 0.82812,-0.062 0.2552,-0.042 0.47395,-0.112 0.65625,-0.2109 0.18229,-0.1042 0.32291,-0.2396 0.42188,-0.4063 0.10416,-0.1719 0.15624,-0.3828 0.15625,-0.6328 -1e-5,-0.2552 -0.0599,-0.4635 -0.17969,-0.625 -0.1198,-0.1667 -0.28647,-0.3047 -0.5,-0.4141 -0.21355,-0.1093 -0.47397,-0.2031 -0.78125,-0.2812 -0.30209,-0.083 -0.63542,-0.1745 -1,-0.2734 -0.33855,-0.089 -0.67448,-0.1875 -1.00781,-0.2969 -0.33334,-0.1094 -0.63542,-0.2526 -0.90625,-0.4297 -0.26563,-0.1823 -0.48178,-0.4063 -0.64844,-0.6719 -0.16667,-0.2656 -0.25,-0.5989 -0.25,-1 0,-0.7708 0.27343,-1.3567 0.82031,-1.7578 0.55208,-0.4062 1.35416,-0.6094 2.40625,-0.6094 0.93229,0 1.67187,0.1641 2.21875,0.4922 0.55208,0.3281 0.90104,0.8542 1.04688,1.5781 l -1.26563,0.1563 c -0.0469,-0.2188 -0.13282,-0.401 -0.25781,-0.5469 -0.12501,-0.151 -0.27605,-0.2708 -0.45313,-0.3594 -0.17709,-0.094 -0.37761,-0.1588 -0.60156,-0.1953 -0.21875,-0.042 -0.44792,-0.062 -0.6875,-0.062 -0.63542,0 -1.10417,0.096 -1.40625,0.2891 -0.30209,0.1927 -0.45313,0.4844 -0.45312,0.875 -1e-5,0.2292 0.0547,0.4193 0.16406,0.5703 0.11458,0.1458 0.27083,0.2708 0.46875,0.375 0.20312,0.099 0.44531,0.1875 0.72656,0.2656 0.28125,0.073 0.59114,0.1511 0.92969,0.2344 0.22395,0.057 0.45312,0.1198 0.6875,0.1875 0.23437,0.062 0.46093,0.1406 0.67969,0.2344 0.22395,0.089 0.43228,0.1953 0.625,0.3203 0.19791,0.1198 0.36978,0.2656 0.51562,0.4375 0.14583,0.1719 0.26041,0.3724 0.34375,0.6016 0.0885,0.2291 0.13281,0.4947 0.13281,0.7968" />
      <path
         id="path3067-8-3"
         style="font-size:16px;fill:#ffffff"
         d="m 230.73679,1027.7853 c 0,0.4427 0.0443,0.8515 0.13282,1.2265 0.0937,0.3698 0.23437,0.6901 0.42187,0.961 0.19271,0.2656 0.4375,0.4739 0.73438,0.625 0.29687,0.1458 0.65364,0.2187 1.07031,0.2187 0.60937,0 1.09635,-0.1224 1.46094,-0.3672 0.36978,-0.2447 0.61978,-0.5546 0.75,-0.9296 l 1.23437,0.3515 c -0.0886,0.2344 -0.21355,0.4714 -0.375,0.711 -0.15626,0.2343 -0.36719,0.4479 -0.63281,0.6406 -0.26563,0.1875 -0.59897,0.3437 -1,0.4687 -0.39584,0.1198 -0.87501,0.1797 -1.4375,0.1797 -1.25,0 -2.20313,-0.3724 -2.85938,-1.1172 -0.65104,-0.7448 -0.97656,-1.8515 -0.97656,-3.3203 0,-0.7916 0.099,-1.4609 0.29688,-2.0078 0.19791,-0.5521 0.46874,-1 0.8125,-1.3437 0.34374,-0.3438 0.74479,-0.5912 1.20312,-0.7422 0.45833,-0.1563 0.94791,-0.2344 1.46875,-0.2344 0.70833,0 1.29947,0.1146 1.77344,0.3437 0.47916,0.2292 0.86197,0.5469 1.14844,0.9532 0.29165,0.401 0.49738,0.875 0.61718,1.4218 0.125,0.5469 0.1875,1.1381 0.1875,1.7735 v 0.1875 h -6.03125 m 4.57813,-1.0781 c -0.0781,-0.8907 -0.3047,-1.5391 -0.67969,-1.9454 -0.375,-0.4114 -0.91407,-0.6171 -1.61719,-0.6171 -0.23438,0 -0.48177,0.039 -0.74218,0.1171 -0.25522,0.073 -0.49219,0.2058 -0.71094,0.3985 -0.21875,0.1927 -0.40365,0.4557 -0.55469,0.789 -0.15104,0.3282 -0.23698,0.7474 -0.25781,1.2579 h 4.5625" />
      <path
         id="path3069-9-9"
         style="font-size:16px;fill:#ffffff"
         d="m 241.52117,1031.8712 c -0.84896,0 -1.48698,-0.2239 -1.91406,-0.6719 -0.42709,-0.4479 -0.64063,-1.0625 -0.64063,-1.8437 0,-0.5573 0.10417,-1.013 0.3125,-1.3672 0.21354,-0.3594 0.48959,-0.6406 0.82813,-0.8437 0.34375,-0.2032 0.73437,-0.3438 1.17187,-0.4219 0.4375,-0.078 0.88281,-0.1224 1.33594,-0.1328 l 1.89844,-0.031 v -0.4609 c -1e-5,-0.349 -0.0365,-0.6458 -0.10938,-0.8906 -0.0729,-0.2448 -0.1849,-0.4427 -0.33593,-0.5938 -0.15105,-0.151 -0.34115,-0.2604 -0.57032,-0.3281 -0.22396,-0.073 -0.48958,-0.1094 -0.79687,-0.1094 -0.27084,0 -0.51563,0.021 -0.73438,0.062 -0.21875,0.036 -0.40885,0.1068 -0.57031,0.2109 -0.16146,0.099 -0.29167,0.237 -0.39062,0.4141 -0.099,0.1719 -0.16407,0.3906 -0.19532,0.6563 l -1.46875,-0.1329 c 0.0521,-0.3333 0.15104,-0.638 0.29688,-0.914 0.14583,-0.2813 0.35156,-0.5235 0.61719,-0.7266 0.27083,-0.2031 0.60676,-0.3594 1.00781,-0.4687 0.40625,-0.1146 0.89583,-0.1719 1.46875,-0.1719 1.06249,0 1.86197,0.2448 2.39844,0.7344 0.53645,0.4843 0.80468,1.1875 0.80468,2.1093 v 3.6407 c 0,0.4166 0.0547,0.7317 0.16407,0.9453 0.10936,0.2083 0.3177,0.3125 0.625,0.3125 0.0781,0 0.15624,-0.01 0.23437,-0.016 0.0781,-0.011 0.15364,-0.024 0.22656,-0.039 v 0.875 c -0.17709,0.042 -0.35417,0.073 -0.53125,0.094 -0.17188,0.021 -0.35677,0.031 -0.55468,0.031 -0.26564,0 -0.4948,-0.034 -0.6875,-0.1016 -0.18751,-0.073 -0.34116,-0.1797 -0.46094,-0.3203 -0.1198,-0.1458 -0.21094,-0.3229 -0.27344,-0.5312 -0.0625,-0.2136 -0.10157,-0.461 -0.11719,-0.7422 h -0.0469 c -0.15105,0.2708 -0.31772,0.5156 -0.5,0.7344 -0.17709,0.2187 -0.38542,0.4062 -0.625,0.5625 -0.23959,0.151 -0.51303,0.2682 -0.82031,0.3515 -0.30209,0.083 -0.65105,0.125 -1.04688,0.125 m 0.32031,-1.0547 c 0.44792,0 0.83854,-0.081 1.17188,-0.2422 0.33854,-0.1666 0.61718,-0.3776 0.83594,-0.6328 0.22395,-0.2552 0.39062,-0.5338 0.5,-0.8359 0.10937,-0.3021 0.16405,-0.5912 0.16406,-0.8672 v -0.6953 l -1.53906,0.031 c -0.34376,0.01 -0.67188,0.031 -0.98438,0.078 -0.30729,0.042 -0.57813,0.1276 -0.8125,0.2578 -0.23438,0.1302 -0.42188,0.3125 -0.5625,0.5469 -0.13542,0.2343 -0.20313,0.5416 -0.20312,0.9218 -1e-5,0.4584 0.12239,0.8125 0.36718,1.0625 0.25,0.25 0.60417,0.375 1.0625,0.375" />
      <path
         id="path3071-7-6"
         style="font-size:16px;fill:#ffffff"
         d="m 249.10242,1031.715 v -6.4844 c 0,-0.1771 -0.003,-0.3568 -0.008,-0.5391 0,-0.1875 -0.003,-0.3672 -0.008,-0.539 -0.005,-0.1719 -0.0104,-0.3334 -0.0156,-0.4844 -0.005,-0.151 -0.0104,-0.2865 -0.0156,-0.4063 h 1.32812 c 0.005,0.1198 0.0104,0.2579 0.0156,0.4141 0.0104,0.1511 0.0182,0.3073 0.0234,0.4688 0.0104,0.1614 0.0156,0.3177 0.0156,0.4687 0.005,0.1458 0.008,0.2708 0.008,0.375 h 0.0312 c 0.099,-0.3229 0.20313,-0.6016 0.3125,-0.8359 0.11458,-0.2396 0.2474,-0.4349 0.39844,-0.586 0.15104,-0.1562 0.33073,-0.2708 0.53906,-0.3437 0.20833,-0.078 0.46094,-0.1172 0.75782,-0.1172 0.11458,0 0.22395,0.01 0.32812,0.031 0.10416,0.016 0.18489,0.031 0.24219,0.047 v 1.2891 c -0.0938,-0.026 -0.20313,-0.044 -0.32813,-0.055 -0.125,-0.016 -0.26562,-0.023 -0.42187,-0.023 -0.32292,0 -0.59896,0.073 -0.82813,0.2187 -0.22396,0.1458 -0.40885,0.349 -0.55468,0.6094 -0.14063,0.2552 -0.2448,0.5625 -0.3125,0.9219 -0.0677,0.3541 -0.10157,0.7421 -0.10157,1.164 v 4.4063 h -1.40625" />
      <path
         id="path3073-3-4"
         style="font-size:16px;fill:#ffffff"
         d="m 256.28524,1027.4493 c 0,0.4844 0.0339,0.9297 0.10156,1.336 0.0729,0.4062 0.19271,0.7578 0.35938,1.0547 0.16666,0.2916 0.38541,0.5182 0.65625,0.6797 0.27604,0.1614 0.61458,0.2421 1.01562,0.2421 0.5,0 0.91666,-0.1354 1.25,-0.4062 0.33854,-0.2708 0.54687,-0.6875 0.625,-1.25 l 1.42188,0.094 c -0.0469,0.349 -0.14845,0.6849 -0.30469,1.0079 -0.15626,0.3229 -0.3698,0.6067 -0.64062,0.8515 -0.26564,0.2448 -0.59116,0.4427 -0.97657,0.5938 -0.38542,0.1458 -0.83073,0.2187 -1.33593,0.2187 -0.66147,0 -1.22397,-0.112 -1.6875,-0.3359 -0.46355,-0.224 -0.84115,-0.5313 -1.13282,-0.9219 -0.28646,-0.3958 -0.49479,-0.8594 -0.625,-1.3906 -0.13021,-0.5365 -0.19531,-1.1172 -0.19531,-1.7422 0,-0.5677 0.0469,-1.0677 0.14063,-1.5 0.0937,-0.4375 0.22395,-0.8177 0.39062,-1.1406 0.17187,-0.3282 0.37239,-0.6016 0.60156,-0.8203 0.22917,-0.224 0.47656,-0.4011 0.74219,-0.5313 0.27083,-0.1354 0.55468,-0.2318 0.85156,-0.2891 0.29687,-0.062 0.59635,-0.094 0.89844,-0.094 0.47395,0 0.89583,0.065 1.26563,0.1953 0.36978,0.1302 0.68749,0.3099 0.95312,0.5391 0.27083,0.2239 0.48958,0.4896 0.65625,0.7968 0.16666,0.3073 0.28385,0.6381 0.35156,0.9922 l -1.44531,0.1094 c -0.0729,-0.4687 -0.25782,-0.8411 -0.55469,-1.1172 -0.29688,-0.276 -0.71875,-0.414 -1.26562,-0.414 -0.40105,0 -0.73699,0.068 -1.00781,0.2031 -0.26563,0.1302 -0.48178,0.3307 -0.64844,0.6015 -0.16667,0.2657 -0.28646,0.6016 -0.35938,1.0079 -0.0677,0.4062 -0.10156,0.8828 -0.10156,1.4296" />
      <path
         id="path3075-6-2"
         style="font-size:16px;fill:#ffffff"
         d="m 265.41335,1024.7072 c 0.15625,-0.2865 0.32552,-0.5287 0.50782,-0.7266 0.18228,-0.2031 0.3828,-0.3698 0.60156,-0.5 0.21874,-0.1302 0.45833,-0.224 0.71875,-0.2813 0.26041,-0.062 0.55208,-0.094 0.875,-0.094 0.54166,0 0.98437,0.073 1.32812,0.2187 0.34895,0.1459 0.62239,0.3516 0.82032,0.6172 0.20311,0.2605 0.34113,0.573 0.41406,0.9375 0.0781,0.3646 0.11718,0.7657 0.11719,1.2032 v 5.6328 h -1.41407 v -5.3594 c 0,-0.3594 -0.0234,-0.6745 -0.0703,-0.9453 -0.0417,-0.2708 -0.12501,-0.4948 -0.25,-0.6719 -0.12501,-0.1823 -0.30209,-0.3177 -0.53125,-0.4062 -0.22917,-0.094 -0.52605,-0.1407 -0.89062,-0.1407 -0.33334,0 -0.63543,0.06 -0.90625,0.1797 -0.26563,0.1198 -0.4948,0.2891 -0.6875,0.5078 -0.18751,0.2188 -0.33334,0.4844 -0.4375,0.7969 -0.10417,0.3125 -0.15626,0.6641 -0.15625,1.0547 v 4.9844 h -1.40625 v -11.5938 h 1.40625 v 3.0156 c -10e-6,0.1719 -0.003,0.3438 -0.008,0.5157 -0.005,0.1718 -0.013,0.3307 -0.0234,0.4765 -0.005,0.1459 -0.0104,0.2709 -0.0156,0.375 -0.005,0.099 -0.0104,0.1667 -0.0156,0.2032 h 0.0234" />
      <path
         id="path3077-1-0"
         style="font-size:16px;fill:#ffffff"
         d="m 281.43155,1035.1056 v -14.9844 h 1.29688 v 14.9844 h -1.29688" />
      <path
         id="path3079-2-2"
         style="font-size:16px;fill:#ffffff"
         d="m 302.39891,1026.0978 c -2e-5,0.9166 -0.13804,1.7265 -0.41407,2.4297 -0.27605,0.6979 -0.65365,1.2838 -1.13281,1.7578 -0.47918,0.4687 -1.04688,0.8255 -1.70312,1.0703 -0.65105,0.2396 -1.35418,0.3594 -2.10938,0.3594 h -4.11719 v -11.0078 h 3.64063 c 0.84895,0 1.6302,0.1067 2.34375,0.3203 0.71874,0.2083 1.33593,0.5338 1.85156,0.9765 0.51562,0.4375 0.91666,0.9948 1.20313,1.6719 0.29165,0.6771 0.43748,1.4844 0.4375,2.4219 m -1.5,0 c -10e-6,-0.7448 -0.10678,-1.3802 -0.32032,-1.9063 -0.21355,-0.5312 -0.51303,-0.9661 -0.89843,-1.3047 -0.38543,-0.3385 -0.84637,-0.5859 -1.38282,-0.7421 -0.53646,-0.1615 -1.125,-0.2422 -1.76562,-0.2422 h -2.11719 v 8.6172 h 2.45313 c 0.57811,0 1.11197,-0.094 1.60156,-0.2813 0.49478,-0.1875 0.92186,-0.4661 1.28125,-0.8359 0.35936,-0.3698 0.64061,-0.8308 0.84375,-1.3828 0.20311,-0.5521 0.30468,-1.1928 0.30469,-1.9219" />
      <path
         id="path3081-9-9"
         style="font-size:16px;fill:#ffffff"
         d="m 306.12858,1027.7853 c 0,0.4427 0.0443,0.8515 0.13281,1.2265 0.0937,0.3698 0.23438,0.6901 0.42188,0.961 0.1927,0.2656 0.43749,0.4739 0.73437,0.625 0.29687,0.1458 0.65364,0.2187 1.07032,0.2187 0.60937,0 1.09634,-0.1224 1.46093,-0.3672 0.36979,-0.2447 0.61979,-0.5546 0.75,-0.9296 l 1.23438,0.3515 c -0.0885,0.2344 -0.21355,0.4714 -0.375,0.711 -0.15626,0.2343 -0.3672,0.4479 -0.63281,0.6406 -0.26564,0.1875 -0.59897,0.3437 -1,0.4687 -0.39584,0.1198 -0.87501,0.1797 -1.4375,0.1797 -1.25001,0 -2.20313,-0.3724 -2.85938,-1.1172 -0.65104,-0.7448 -0.97656,-1.8515 -0.97656,-3.3203 0,-0.7916 0.099,-1.4609 0.29687,-2.0078 0.19792,-0.5521 0.46875,-1 0.8125,-1.3437 0.34375,-0.3438 0.74479,-0.5912 1.20313,-0.7422 0.45833,-0.1563 0.94791,-0.2344 1.46875,-0.2344 0.70833,0 1.29947,0.1146 1.77344,0.3437 0.47916,0.2292 0.86197,0.5469 1.14843,0.9532 0.29166,0.401 0.49739,0.875 0.61719,1.4218 0.12499,0.5469 0.18749,1.1381 0.1875,1.7735 v 0.1875 h -6.03125 m 4.57813,-1.0781 c -0.0781,-0.8907 -0.3047,-1.5391 -0.67969,-1.9454 -0.37501,-0.4114 -0.91407,-0.6171 -1.61719,-0.6171 -0.23438,0 -0.48177,0.039 -0.74219,0.1171 -0.25521,0.073 -0.49219,0.2058 -0.71093,0.3985 -0.21876,0.1927 -0.40365,0.4557 -0.55469,0.789 -0.15105,0.3282 -0.23698,0.7474 -0.25781,1.2579 h 4.5625" />
      <path
         id="path3083-3-5"
         style="font-size:16px;fill:#ffffff"
         d="m 321.10046,1029.379 c -10e-6,0.3959 -0.0781,0.75 -0.23438,1.0625 -0.15105,0.3073 -0.3724,0.5677 -0.66406,0.7813 -0.29167,0.2083 -0.65105,0.3698 -1.07812,0.4844 -0.42188,0.1093 -0.90626,0.164 -1.45313,0.164 -0.48959,0 -0.93229,-0.039 -1.32812,-0.1172 -0.39063,-0.073 -0.73438,-0.1927 -1.03125,-0.3593 -0.29688,-0.1667 -0.54688,-0.3855 -0.75,-0.6563 -0.19792,-0.276 -0.34375,-0.612 -0.4375,-1.0078 l 1.24218,-0.2422 c 0.11979,0.4531 0.36719,0.7865 0.74219,1 0.375,0.2083 0.89583,0.3125 1.5625,0.3125 0.30208,0 0.57812,-0.021 0.82813,-0.062 0.2552,-0.042 0.47395,-0.112 0.65625,-0.2109 0.18228,-0.1042 0.32291,-0.2396 0.42187,-0.4063 0.10416,-0.1719 0.15624,-0.3828 0.15625,-0.6328 -1e-5,-0.2552 -0.0599,-0.4635 -0.17969,-0.625 -0.11979,-0.1667 -0.28646,-0.3047 -0.5,-0.4141 -0.21354,-0.1093 -0.47396,-0.2031 -0.78125,-0.2812 -0.30208,-0.083 -0.63542,-0.1745 -1,-0.2734 -0.33854,-0.089 -0.67448,-0.1875 -1.00781,-0.2969 -0.33333,-0.1094 -0.63542,-0.2526 -0.90625,-0.4297 -0.26563,-0.1823 -0.48177,-0.4063 -0.64844,-0.6719 -0.16666,-0.2656 -0.25,-0.5989 -0.25,-1 0,-0.7708 0.27344,-1.3567 0.82032,-1.7578 0.55208,-0.4062 1.35416,-0.6094 2.40625,-0.6094 0.93228,0 1.67187,0.1641 2.21875,0.4922 0.55207,0.3281 0.90103,0.8542 1.04687,1.5781 l -1.26562,0.1563 c -0.0469,-0.2188 -0.13282,-0.401 -0.25782,-0.5469 -0.125,-0.151 -0.27604,-0.2708 -0.45312,-0.3594 -0.17709,-0.094 -0.37761,-0.1588 -0.60156,-0.1953 -0.21876,-0.042 -0.44792,-0.062 -0.6875,-0.062 -0.63542,0 -1.10417,0.096 -1.40625,0.2891 -0.30209,0.1927 -0.45313,0.4844 -0.45313,0.875 0,0.2292 0.0547,0.4193 0.16406,0.5703 0.11458,0.1458 0.27083,0.2708 0.46875,0.375 0.20313,0.099 0.44531,0.1875 0.72657,0.2656 0.28124,0.073 0.59114,0.1511 0.92968,0.2344 0.22396,0.057 0.45312,0.1198 0.6875,0.1875 0.23437,0.062 0.46094,0.1406 0.67969,0.2344 0.22395,0.089 0.43229,0.1953 0.625,0.3203 0.19791,0.1198 0.36979,0.2656 0.51563,0.4375 0.14582,0.1719 0.26041,0.3724 0.34375,0.6016 0.0885,0.2291 0.1328,0.4947 0.13281,0.7968" />
      <path
         id="path3085-1-7"
         style="font-size:16px;fill:#ffffff"
         d="m 323.5489,1021.465 v -1.3438 h 1.40625 v 1.3438 h -1.40625 m 0,10.25 v -8.4532 h 1.40625 v 8.4532 h -1.40625" />
      <path
         id="path3087-9-4"
         style="font-size:16px;fill:#ffffff"
         d="m 331.12234,1035.0353 c -0.48438,0 -0.91407,-0.05 -1.28906,-0.1485 -0.37501,-0.099 -0.69532,-0.2421 -0.96094,-0.4296 -0.26563,-0.1823 -0.48177,-0.4011 -0.64844,-0.6563 -0.16667,-0.2552 -0.28646,-0.5391 -0.35937,-0.8516 l 1.41406,-0.2031 c 0.0937,0.3906 0.29948,0.6901 0.61719,0.8985 0.32291,0.2135 0.74478,0.3203 1.26562,0.3203 0.31771,0 0.60677,-0.044 0.86719,-0.1328 0.26041,-0.089 0.48176,-0.2318 0.66406,-0.4297 0.18229,-0.1927 0.32291,-0.4453 0.42188,-0.7578 0.099,-0.3125 0.14843,-0.6928 0.14843,-1.1407 v -1.3593 h -0.0156 c -0.10417,0.2135 -0.23438,0.4192 -0.39063,0.6171 -0.15104,0.1927 -0.33854,0.3646 -0.5625,0.5157 -0.21875,0.151 -0.47396,0.2734 -0.76562,0.3672 -0.29167,0.088 -0.625,0.1328 -1,0.1328 -0.53646,0 -0.9974,-0.089 -1.38281,-0.2657 -0.38021,-0.1823 -0.69271,-0.4531 -0.9375,-0.8125 -0.23959,-0.3593 -0.41667,-0.8046 -0.53125,-1.3359 -0.10938,-0.5365 -0.16407,-1.1562 -0.16407,-1.8594 0,-0.6771 0.0547,-1.2864 0.16407,-1.8281 0.11458,-0.5417 0.29687,-1 0.54687,-1.375 0.25521,-0.3802 0.58333,-0.6693 0.98438,-0.8672 0.40624,-0.2031 0.89843,-0.3047 1.47656,-0.3047 0.59895,0 1.11718,0.1381 1.55469,0.4141 0.4427,0.2708 0.78385,0.6589 1.02343,1.1641 h 0.0156 c -10e-6,-0.1302 0.003,-0.2761 0.008,-0.4375 0.0104,-0.1615 0.0182,-0.3125 0.0234,-0.4532 0.0104,-0.1458 0.0208,-0.2708 0.0312,-0.375 0.0104,-0.1041 0.0208,-0.164 0.0312,-0.1797 h 1.33594 c -0.005,0.047 -0.0104,0.1277 -0.0156,0.2422 -0.005,0.1094 -0.0104,0.2422 -0.0156,0.3985 -0.005,0.1562 -0.0104,0.3307 -0.0156,0.5234 -10e-6,0.1875 -10e-6,0.3828 0,0.5859 v 6.461 c -10e-6,1.1823 -0.29167,2.0703 -0.875,2.664 -0.57813,0.599 -1.46615,0.8985 -2.66406,0.8985 m 2.14062,-7.5469 c 0,-0.5885 -0.0651,-1.0911 -0.19531,-1.5078 -0.125,-0.4219 -0.29167,-0.7656 -0.5,-1.0313 -0.20834,-0.2656 -0.44792,-0.4609 -0.71875,-0.5859 -0.26563,-0.125 -0.53906,-0.1875 -0.82031,-0.1875 -0.35938,0 -0.66927,0.062 -0.92969,0.1875 -0.25521,0.125 -0.46875,0.3229 -0.64062,0.5938 -0.16667,0.2656 -0.29167,0.6093 -0.375,1.0312 -0.0781,0.4167 -0.11719,0.9167 -0.11719,1.5 0,0.6094 0.0391,1.1224 0.11719,1.5391 0.0833,0.4114 0.20833,0.7448 0.375,1 0.16666,0.2552 0.3776,0.4375 0.63281,0.5468 0.2552,0.1094 0.55989,0.1641 0.91406,0.1641 0.28125,0 0.55468,-0.06 0.82031,-0.1797 0.27083,-0.1198 0.51302,-0.3099 0.72657,-0.5703 0.21353,-0.2604 0.38541,-0.5963 0.51562,-1.0078 0.1302,-0.4115 0.19531,-0.9089 0.19531,-1.4922" />
      <path
         id="path3089-47-6"
         style="font-size:16px;fill:#ffffff"
         d="m 342.99266,1031.715 v -5.3594 c -10e-6,-0.4115 -0.0313,-0.7552 -0.0937,-1.0313 -0.0573,-0.276 -0.15366,-0.4973 -0.28907,-0.664 -0.13542,-0.1719 -0.31511,-0.2917 -0.53906,-0.3594 -0.21876,-0.073 -0.49219,-0.1094 -0.82031,-0.1094 -0.33334,0 -0.63542,0.06 -0.90625,0.1797 -0.26563,0.1146 -0.4948,0.2839 -0.6875,0.5078 -0.18751,0.2188 -0.33334,0.4922 -0.4375,0.8203 -0.10417,0.323 -0.15625,0.6954 -0.15625,1.1172 v 4.8985 h -1.40625 v -6.6485 c 0,-0.177 -0.003,-0.3619 -0.008,-0.5547 -1e-5,-0.1979 -0.003,-0.3828 -0.008,-0.5546 -0.005,-0.1771 -0.0104,-0.3282 -0.0156,-0.4532 -0.005,-0.125 -0.0104,-0.2057 -0.0156,-0.2422 h 1.32813 c 0.005,0.026 0.0104,0.096 0.0156,0.211 0.005,0.1146 0.0104,0.2474 0.0156,0.3984 0.0104,0.1459 0.0182,0.2969 0.0234,0.4531 0.005,0.1511 0.008,0.2787 0.008,0.3829 h 0.0234 c 0.13541,-0.2448 0.28385,-0.4662 0.44531,-0.6641 0.16145,-0.1979 0.34895,-0.3646 0.5625,-0.5 0.21354,-0.1406 0.45833,-0.2474 0.73437,-0.3203 0.27604,-0.078 0.59635,-0.1172 0.96094,-0.1172 0.46874,0 0.87239,0.057 1.21094,0.1719 0.33853,0.1146 0.61718,0.2916 0.83594,0.5312 0.21874,0.2396 0.37759,0.5495 0.47656,0.9297 0.10416,0.375 0.15624,0.8229 0.15625,1.3438 v 5.6328 h -1.41406" />
    </g>
    <path
       id="path4182-8-4"
       d="m 43.23259,126.93237 c -0.563691,0 -1.033503,0.40212 -1.033526,0.91172 -1.7e-5,0.50964 0.46981,0.91172 1.033526,0.91172 0.563719,0 1.034096,-0.40208 1.034082,-0.91172 -2.6e-5,-0.5096 -0.470388,-0.91172 -1.034082,-0.91172 z m 0,0.17806 c 0.479893,0 0.856019,0.33457 0.856039,0.73366 1.1e-5,0.39912 -0.376123,0.73367 -0.856039,0.73367 -0.479913,0 -0.855498,-0.33455 -0.855486,-0.73367 2e-5,-0.39909 0.375595,-0.73366 0.855486,-0.73366 z"
       style="color:#000000;font-style:normal;font-variant:normal;font-weight:normal;font-stretch:normal;font-size:medium;line-height:normal;font-family:sans-serif;text-indent:0;text-align:start;text-decoration:none;text-decoration-line:none;text-decoration-style:solid;text-decoration-color:#000000;letter-spacing:normal;word-spacing:normal;text-transform:none;writing-mode:lr-tb;direction:ltr;baseline-shift:baseline;text-anchor:start;white-space:normal;clip-rule:nonzero;display:inline;overflow:visible;visibility:visible;opacity:1;isolation:auto;mix-blend-mode:normal;color-interpolation:sRGB;color-interpolation-filters:linearRGB;solid-color:#000000;solid-opacity:1;fill:#ff6600;fill-opacity:1;fill-rule:nonzero;stroke:none;stroke-width:0.17807628;stroke-linecap:butt;stroke-linejoin:miter;stroke-miterlimit:4;stroke-dasharray:none;stroke-dashoffset:0;stroke-opacity:1;color-rendering:auto;image-rendering:auto;shape-rendering:auto;text-rendering:auto;enable-background:accumulate" />
    <g
       id="text4197-45-9"
       style="font-style:normal;font-weight:normal;font-size:4.45019531px;line-height:125%;font-family:sans-serif;letter-spacing:0.64730114px;word-spacing:0px;fill:#ff6600;fill-opacity:1;stroke:none;stroke-width:1px;stroke-linecap:butt;stroke-linejoin:miter;stroke-opacity:1"
       transform="matrix(0.27925215,0,0,0.28522388,24.73657,-160.474)">
      <path
         id="path4179-0-1"
         style="font-style:normal;font-variant:normal;font-weight:bold;font-stretch:normal;font-family:sans-serif;-inkscape-font-specification:'sans-serif Bold';fill:#ff6600"
         d="m 66.061471,1010.62 q 0.262927,0 0.37592,-0.098 0.115166,-0.098 0.115166,-0.3216 0,-0.2216 -0.115166,-0.3172 -0.112993,-0.096 -0.37592,-0.096 h -0.352017 v 0.8322 h 0.352017 z m -0.352017,0.578 v 1.2277 h -0.836585 v -3.2442 h 1.277693 q 0.64102,0 0.938713,0.2151 0.299867,0.2152 0.299867,0.6802 0,0.3216 -0.156452,0.528 -0.154279,0.2064 -0.467184,0.3042 0.171663,0.039 0.306386,0.1782 0.136895,0.1369 0.275964,0.4172 l 0.454146,0.9213 h -0.890908 l -0.395477,-0.8061 q -0.119512,-0.2434 -0.24337,-0.3325 -0.121685,-0.089 -0.325942,-0.089 h -0.236851 z" />
    </g>
    <g
       id="text7296-36-2"
       style="font-style:normal;font-weight:normal;font-size:4.38594818px;line-height:125%;font-family:sans-serif;letter-spacing:0.21929741px;word-spacing:0px;fill:#ffffff;fill-opacity:1;stroke:none;stroke-width:1px;stroke-linecap:butt;stroke-linejoin:miter;stroke-opacity:1"
       transform="matrix(0.2822222,0,0,0.2822222,24.73657,-160.474)">
      <path
         id="path4185-1-3"
         style="font-style:normal;font-variant:normal;font-weight:bold;font-stretch:normal;font-family:sans-serif;-inkscape-font-specification:'sans-serif Bold';fill:#ffffff"
         d="m 381.31905,978.52192 q 0.25913,0 0.3705,-0.0964 0.1135,-0.0964 0.1135,-0.31695 0,-0.21844 -0.1135,-0.31267 -0.11137,-0.0942 -0.3705,-0.0942 h -0.34693 v 0.82022 z m -0.34693,0.56966 v 1.20999 h -0.82451 v -3.19737 h 1.25925 q 0.63176,0 0.92516,0.21202 0.29554,0.21201 0.29554,0.67031 0,0.31695 -0.1542,0.5204 -0.15205,0.20345 -0.46044,0.29982 0.16919,0.0385 0.30197,0.17561 0.13492,0.13492 0.27198,0.41119 l 0.44759,0.90802 h -0.87805 l -0.38977,-0.79452 q -0.11778,-0.23986 -0.23985,-0.32766 -0.11993,-0.0878 -0.32124,-0.0878 h -0.23343 z" />
    </g>
    <path
       id="path7300-0-1"
       d="m 132.34977,114.60612 c -0.64202,0 -1.16527,0.52327 -1.16527,1.16527 0,0.64203 0.52325,1.16527 1.16527,1.16527 0.64201,0 1.16527,-0.52324 1.16527,-1.16527 0,-0.642 -0.52326,-1.16527 -1.16527,-1.16527 z m 0,0.26018 c 0.50152,0 0.90564,0.40358 0.90564,0.90509 0,0.50154 -0.40412,0.90565 -0.90564,0.90565 -0.50152,0 -0.9051,-0.40411 -0.9051,-0.90565 0,-0.50151 0.40358,-0.90509 0.9051,-0.90509 z"
       style="color:#000000;font-style:normal;font-variant:normal;font-weight:normal;font-stretch:normal;font-size:medium;line-height:normal;font-family:sans-serif;text-indent:0;text-align:start;text-decoration:none;text-decoration-line:none;text-decoration-style:solid;text-decoration-color:#000000;letter-spacing:normal;word-spacing:normal;text-transform:none;writing-mode:lr-tb;direction:ltr;baseline-shift:baseline;text-anchor:start;white-space:normal;clip-rule:nonzero;display:inline;overflow:visible;visibility:visible;opacity:1;isolation:auto;mix-blend-mode:normal;color-interpolation:sRGB;color-interpolation-filters:linearRGB;solid-color:#000000;solid-opacity:1;fill:#ffffff;fill-opacity:1;fill-rule:nonzero;stroke:none;stroke-width:0;stroke-linecap:butt;stroke-linejoin:miter;stroke-miterlimit:4;stroke-dasharray:none;stroke-dashoffset:0;stroke-opacity:1;color-rendering:auto;image-rendering:auto;shape-rendering:auto;text-rendering:auto;enable-background:accumulate" />
  </g>
</svg>
