<?xml version="1.0" encoding="UTF-8" standalone="no"?>
<!-- Created with Inkscape (http://www.inkscape.org/) -->

<svg
   xmlns:dc="http://purl.org/dc/elements/1.1/"
   xmlns:cc="http://creativecommons.org/ns#"
   xmlns:rdf="http://www.w3.org/1999/02/22-rdf-syntax-ns#"
   xmlns:svg="http://www.w3.org/2000/svg"
   xmlns="http://www.w3.org/2000/svg"
   xmlns:sodipodi="http://sodipodi.sourceforge.net/DTD/sodipodi-0.dtd"
   xmlns:inkscape="http://www.inkscape.org/namespaces/inkscape"
   width="20.739805mm"
   height="13.624681mm"
   viewBox="0 0 20.739805 13.624681"
   version="1.1"
   id="svg4980"
   inkscape:version="0.92.1 r15371"
   sodipodi:docname="mobisynco-arrow-orange.svg">
  <defs
     id="defs4974" />
  <sodipodi:namedview
     id="base"
     pagecolor="#ffffff"
     bordercolor="#666666"
     borderopacity="1.0"
     inkscape:pageopacity="0.0"
     inkscape:pageshadow="2"
     inkscape:zoom="5.6568542"
     inkscape:cx="40.337115"
     inkscape:cy="38.592253"
     inkscape:document-units="mm"
     inkscape:current-layer="layer1"
     showgrid="false"
     inkscape:window-width="1920"
     inkscape:window-height="1017"
     inkscape:window-x="1912"
     inkscape:window-y="-8"
     inkscape:window-maximized="1" />
  <metadata
     id="metadata4977">
    <rdf:RDF>
      <cc:Work
         rdf:about="">
        <dc:format>image/svg+xml</dc:format>
        <dc:type
           rdf:resource="http://purl.org/dc/dcmitype/StillImage" />
        <dc:title />
      </cc:Work>
    </rdf:RDF>
  </metadata>
  <g
     inkscape:label="Layer 1"
     inkscape:groupmode="layer"
     id="layer1"
     transform="translate(3.0780748,-142.61272)">
    <g
       id="g2972-7-5"
       transform="matrix(0.25252365,0,0,-0.25665671,84.443438,167.18407)"
       style="fill:#ff6600;fill-opacity:1;stroke:none"
       inkscape:export-filename="/var/www/Development/mobisynco/css/css_images/logo.png"
       inkscape:export-xdpi="90"
       inkscape:export-ydpi="90">
      <path
         d="m -346.58739,54.39739 c 3.58588,-0.922473 7.01219,-1.568339 10.42811,-1.275571 3.41588,0.287383 6.54856,1.114535 9.70375,2.173193 3.15253,1.061362 6.11227,2.392825 8.88997,3.983575 2.77771,1.596131 4.84815,2.780493 7.13076,4.464866 2.28257,1.684372 4.26595,3.302665 5.95551,4.849469 1.68686,1.549513 3.02788,2.81501 4.01757,3.796517 l -16.37859,16.381864 52.38307,6.964934 -7.09438,-53.085234 -14.41071,15.48713 c -4.08452,-3.701981 -8.30954,-6.744688 -12.22306,-8.839676 -3.91356,-2.094987 -7.22486,-3.136839 -10.84796,-4.031968 -3.61772,-0.895151 -7.07176,-1.29548 -10.35956,-1.209071 -3.28772,0.09178 -6.31842,0.47067 -9.09479,1.139324 -6.54547,1.570349 -12.42798,4.752455 -18.09969,9.200648"
         style="fill:#ff6600;fill-opacity:1;fill-rule:nonzero;stroke:none"
         id="path2974-6-1"
         inkscape:connector-curvature="0"
         sodipodi:nodetypes="ccccsccccccscccc" />
    </g>
    <path
       d="m 15.072588,146.66146 c -0.08791,0.10053 -0.19779,0.23076 -0.329641,0.39069 -0.131863,0.15993 -0.274712,0.33585 -0.428538,0.52777 -0.153839,0.19192 -0.313168,0.39297 -0.477981,0.60316 -0.164829,0.20563 -0.324158,0.40669 -0.477985,0.60317 -0.153838,0.19192 -0.296683,0.37241 -0.428538,0.54148 -0.131859,0.1645 -0.238996,0.2993 -0.321401,0.40439 h -0.642805 c -0.02196,-0.10966 -0.0522,-0.24674 -0.09065,-0.41124 -0.03295,-0.16907 -0.07143,-0.34957 -0.115374,-0.54148 -0.04396,-0.19649 -0.09066,-0.39754 -0.1401,-0.60317 -0.04396,-0.21019 -0.09066,-0.41125 -0.140099,-0.60317 -0.04395,-0.19191 -0.08516,-0.36555 -0.123614,-0.52091 -0.03848,-0.15993 -0.07143,-0.29016 -0.09889,-0.39069 -0.230756,0.58946 -0.456009,1.1972 -0.675771,1.82321 -0.219762,0.62601 -0.434033,1.26116 -0.642805,1.90545 h -0.79115 c 0.131858,-0.41124 0.269208,-0.82478 0.412057,-1.2406 0.148336,-0.42039 0.296675,-0.83164 0.445019,-1.23375 0.153831,-0.40668 0.304916,-0.80193 0.453259,-1.18577 0.153831,-0.38383 0.302171,-0.7471 0.445019,-1.08981 h 0.782901 c 0.06593,0.20106 0.134604,0.43867 0.206026,0.71283 0.07691,0.27417 0.151085,0.56205 0.222512,0.86363 0.07691,0.29701 0.14559,0.59403 0.206027,0.89104 0.06592,0.29701 0.120865,0.56661 0.16482,0.80879 0.197782,-0.24675 0.414799,-0.51863 0.651046,-0.81565 0.241734,-0.29701 0.483475,-0.59402 0.725217,-0.89104 0.241734,-0.30158 0.475231,-0.58717 0.700492,-0.85677 0.230745,-0.27416 0.436771,-0.51177 0.618084,-0.71283 h 0.76642 c -0.09341,0.77224 -0.21977,1.55818 -0.379091,2.35783 -0.153839,0.79509 -0.324155,1.59245 -0.510947,2.3921 h -0.799385 c 0.164816,-0.65799 0.315901,-1.29543 0.453259,-1.91231 0.137346,-0.62144 0.258215,-1.22689 0.362607,-1.81635"
       style="font-style:italic;font-variant:normal;font-weight:normal;font-stretch:normal;font-size:20.86165619px;line-height:125%;font-family:Ubuntu;-inkscape-font-specification:'Ubuntu Italic';letter-spacing:0px;word-spacing:0px;fill:#ffffff;fill-opacity:1;stroke:none;stroke-width:0.36026391"
       id="path3079-9-0"
       inkscape:connector-curvature="0" />
    <path
       style="fill:none;stroke:#ffffff;stroke-width:0.17807628;stroke-miterlimit:4;stroke-dasharray:none"
       d="m 12.840747,154.58924 a 0.94481586,0.8227132 0 0 1 -0.944818,0.82273 0.94481586,0.8227132 0 0 1 -0.944815,-0.82273 0.94481586,0.8227132 0 0 1 0.944815,-0.82268 0.94481586,0.8227132 0 0 1 0.944818,0.82268 z"
       id="path4182-1"
       inkscape:connector-curvature="0" />
  </g>
</svg>
