<?xml version="1.0" encoding="UTF-8" standalone="no"?>
<!-- Created with Inkscape (http://www.inkscape.org/) -->

<svg
   xmlns:dc="http://purl.org/dc/elements/1.1/"
   xmlns:cc="http://creativecommons.org/ns#"
   xmlns:rdf="http://www.w3.org/1999/02/22-rdf-syntax-ns#"
   xmlns:svg="http://www.w3.org/2000/svg"
   xmlns="http://www.w3.org/2000/svg"
   xmlns:sodipodi="http://sodipodi.sourceforge.net/DTD/sodipodi-0.dtd"
   xmlns:inkscape="http://www.inkscape.org/namespaces/inkscape"
   width="20.739805mm"
   height="13.624681mm"
   viewBox="0 0 20.739805 13.624681"
   version="1.1"
   id="svg4980"
   inkscape:version="0.92.1 r15371"
   sodipodi:docname="mobisynco-arrow-orange.svg">
  <defs
     id="defs4974" />
  <sodipodi:namedview
     id="base"
     pagecolor="#ffffff"
     bordercolor="#666666"
     borderopacity="1.0"
     inkscape:pageopacity="0.0"
     inkscape:pageshadow="2"
     inkscape:zoom="1"
     inkscape:cx="275.77721"
     inkscape:cy="26.80842"
     inkscape:document-units="mm"
     inkscape:current-layer="layer1"
     showgrid="false"
     inkscape:window-width="1920"
     inkscape:window-height="1017"
     inkscape:window-x="-8"
     inkscape:window-y="-8"
     inkscape:window-maximized="1" />
  <metadata
     id="metadata4977">
    <rdf:RDF>
      <cc:Work
         rdf:about="">
        <dc:format>image/svg+xml</dc:format>
        <dc:type
           rdf:resource="http://purl.org/dc/dcmitype/StillImage" />
        <dc:title></dc:title>
      </cc:Work>
    </rdf:RDF>
  </metadata>
  <g
     inkscape:label="Layer 1"
     inkscape:groupmode="layer"
     id="layer1"
     transform="translate(3.2319098,-142.30171)">
    <g
       id="g2972-7-5"
       transform="matrix(0.25252365,0,0,-0.25665671,84.289603,166.87306)"
       style="fill:#ff6600;fill-opacity:1;stroke:none"
       inkscape:export-filename="/var/www/Development/mobisynco/css/css_images/logo.png"
       inkscape:export-xdpi="90"
       inkscape:export-ydpi="90">
      <path
         d="m -346.58739,54.39739 c 3.58588,-0.922473 7.01219,-1.568339 10.42811,-1.275571 3.41588,0.287383 6.54856,1.114535 9.70375,2.173193 3.15253,1.061362 6.11227,2.392825 8.88997,3.983575 2.77771,1.596131 4.84815,2.780493 7.13076,4.464866 2.28257,1.684372 4.26595,3.302665 5.95551,4.849469 1.68686,1.549513 3.02788,2.81501 4.01757,3.796517 l -16.37859,16.381864 52.38307,6.964934 -7.09438,-53.085234 -14.41071,15.48713 c -4.08452,-3.701981 -8.30954,-6.744688 -12.22306,-8.839676 -3.91356,-2.094987 -7.22486,-3.136839 -10.84796,-4.031968 -3.61772,-0.895151 -7.07176,-1.29548 -10.35956,-1.209071 -3.28772,0.09178 -6.31842,0.47067 -9.09479,1.139324 -6.54547,1.570349 -12.42798,4.752455 -18.09969,9.200648"
         style="fill:#ff6600;fill-opacity:1;fill-rule:nonzero;stroke:none"
         id="path2974-6-1"
         inkscape:connector-curvature="0"
         sodipodi:nodetypes="ccccsccccccscccc" />
    </g>
    <g
       transform="matrix(0.39503519,0,0,0.32855318,-113.31124,129.35325)"
       style="font-style:normal;font-variant:normal;font-weight:normal;font-stretch:normal;font-size:5.79490376px;line-height:125%;font-family:Ubuntu;-inkscape-font-specification:Ubuntu;letter-spacing:0px;word-spacing:0px;fill:#ffffff;fill-opacity:1;stroke:none"
       id="text4172-5-6-2-0">
      <path
         d="m 324.60396,51.733485 c -0.22254,0.305982 -0.50069,0.702353 -0.83446,1.189114 -0.3338,0.486782 -0.69541,1.022231 -1.08481,1.606348 -0.38943,0.584134 -0.79276,1.196075 -1.20997,1.835826 -0.41725,0.625855 -0.82058,1.237797 -1.20998,1.835825 -0.38943,0.584131 -0.75103,1.133487 -1.08481,1.648071 -0.33379,0.500683 -0.605,0.910961 -0.8136,1.230838 h -1.62721 c -0.0556,-0.333784 -0.13213,-0.751017 -0.22948,-1.2517 -0.0834,-0.514583 -0.18081,-1.06394 -0.29206,-1.64807 -0.11127,-0.598029 -0.22949,-1.20997 -0.35465,-1.835826 -0.11127,-0.63975 -0.22949,-1.251692 -0.35465,-1.835826 -0.11127,-0.584117 -0.21558,-1.112612 -0.31292,-1.585486 -0.0974,-0.486761 -0.18081,-0.883132 -0.25034,-1.189114 -0.58414,1.794112 -1.15435,3.643843 -1.71066,5.5492 -0.55631,1.905369 -1.09872,3.838547 -1.62721,5.799541 h -2.00272 c 0.33379,-1.251698 0.68148,-2.51035 1.04309,-3.77596 0.3755,-1.27951 0.75101,-2.531208 1.12653,-3.755098 0.38941,-1.237783 0.77187,-2.440804 1.14739,-3.609067 0.38941,-1.16824 0.76492,-2.273907 1.12653,-3.317003 h 1.98185 c 0.16689,0.611956 0.34074,1.335159 0.52154,2.169612 0.1947,0.834478 0.38246,1.710667 0.56327,2.628569 0.1947,0.904014 0.36855,1.808018 0.52154,2.712015 0.16688,0.904011 0.30596,1.724569 0.41723,2.461676 0.50067,-0.751015 1.05003,-1.578526 1.64807,-2.482537 0.61193,-0.903998 1.22388,-1.808002 1.83583,-2.712016 0.61193,-0.917902 1.20301,-1.787137 1.77324,-2.607707 0.58411,-0.834453 1.10565,-1.557656 1.56463,-2.169612 h 1.94013 c -0.23645,2.350425 -0.55633,4.74256 -0.95964,7.17641 -0.38943,2.419957 -0.82057,4.84686 -1.29342,7.280718 h -2.02358 c 0.41722,-2.002717 0.79968,-3.942849 1.14739,-5.820402 0.34768,-1.891449 0.65365,-3.734227 0.91791,-5.528339"
         style="font-style:italic;font-size:20.86165619px;-inkscape-font-specification:'Ubuntu Italic';fill:#ffffff"
         id="path3079-9-0"
         inkscape:connector-curvature="0" />
    </g>
  </g>
</svg>
