<?xml version="1.0" encoding="UTF-8" standalone="no"?>
<svg
   xmlns:dc="http://purl.org/dc/elements/1.1/"
   xmlns:cc="http://creativecommons.org/ns#"
   xmlns:rdf="http://www.w3.org/1999/02/22-rdf-syntax-ns#"
   xmlns:svg="http://www.w3.org/2000/svg"
   xmlns="http://www.w3.org/2000/svg"
   id="svg1299"
   version="1.1"
   viewBox="0 0 13.843182 12.70619"
   height="12.70619mm"
   width="13.843183mm">
  <defs
     id="defs1293" />
  <metadata
     id="metadata1296">
    <rdf:RDF>
      <cc:Work
         rdf:about="">
        <dc:format>image/svg+xml</dc:format>
        <dc:type
           rdf:resource="http://purl.org/dc/dcmitype/StillImage" />
        <dc:title></dc:title>
      </cc:Work>
    </rdf:RDF>
  </metadata>
  <g
     transform="translate(-50.860964,-113.73013)"
     id="layer1">
    <path
       id="path6642"
       style="font-style:normal;font-variant:normal;font-weight:bold;font-stretch:normal;font-size:19.85951424px;line-height:125%;font-family:Nationale;-inkscape-font-specification:'Nationale Bold';letter-spacing:0px;word-spacing:0px;fill:#ff6600;fill-opacity:1;stroke:none;stroke-width:0.26458332"
       d="m 62.499506,120.83253 c 0.168349,-0.23249 0.252526,-0.43157 0.252531,-0.59727 -5e-6,-0.22712 -0.05345,-0.41686 -0.160337,-0.56918 -0.104222,-0.15499 -0.277924,-0.23249 -0.521097,-0.23249 -0.291282,0 -0.489035,0.11356 -0.593249,0.34071 -0.104222,0.22447 -0.156331,0.54917 -0.156331,0.97406 v 1.73966 c 0,0.4249 0.0815,0.75092 0.244517,0.97806 0.165677,0.22447 0.402177,0.33671 0.709491,0.33671 0.342053,0 0.578551,-0.0909 0.709496,-0.27257 0.13094,-0.18172 0.196408,-0.32737 0.196413,-0.43694 -5e-6,-0.38213 -0.157668,-0.68677 -0.472998,-0.91392 -0.171027,-0.11491 -0.491704,-0.17769 -0.962022,-0.18838 v -0.91393 c 0.435578,-0.0668 0.686773,-0.14832 0.753586,-0.24452 m -2.613501,5.60379 v -5.61181 c -6e-6,-0.75092 0.184385,-1.31744 0.553164,-1.69958 0.304641,-0.318 0.605269,-0.5211 0.901898,-0.60928 0.296622,-0.0909 0.547818,-0.13629 0.753587,-0.13629 0.205761,0.003 0.324681,0.007 0.356748,0.0119 0.547817,0.0855 0.975384,0.30062 1.282703,0.64534 0.21378,0.23517 0.320669,0.59325 0.320672,1.07426 -3e-6,0.24586 -0.07349,0.47969 -0.220461,0.70149 -0.179049,0.27258 -0.402186,0.41955 -0.669412,0.44093 0.395499,0.10689 0.716174,0.27258 0.962028,0.49705 0.384804,0.34472 0.577209,0.78698 0.577215,1.32678 -6e-6,0.47567 -0.167021,0.88987 -0.501055,1.24261 -0.334039,0.35007 -0.80169,0.52512 -1.402956,0.52512 -0.601268,0 -1.094303,-0.25521 -1.479113,-0.76562 v 2.35696 h -1.435018" />
    <path
       id="path6645"
       style="font-style:italic;font-variant:normal;font-weight:normal;font-stretch:normal;font-size:34.04487991px;line-height:125%;font-family:Serif;-inkscape-font-specification:'Serif Italic';letter-spacing:0px;word-spacing:0px;fill:#ffffff;fill-opacity:1;stroke:none;stroke-width:0.26458332"
       d="m 51.719913,121.03467 h -0.858949 l 3.222786,-3.50454 -1.6217,-3.06472 h -0.900184 l 0.137433,-0.73528 h 1.855335 l 1.518626,2.84485 2.618084,-2.84485 h 0.858954 l -3.160943,3.4358 1.669799,3.14034 h 0.955159 l -0.137432,0.7284 h -1.917182 l -1.552985,-2.91357 -2.686801,2.91357" />
  </g>
</svg>
