<?xml version="1.0" encoding="UTF-8" standalone="no"?>
<svg
   xmlns:dc="http://purl.org/dc/elements/1.1/"
   xmlns:cc="http://creativecommons.org/ns#"
   xmlns:rdf="http://www.w3.org/1999/02/22-rdf-syntax-ns#"
   xmlns:svg="http://www.w3.org/2000/svg"
   xmlns="http://www.w3.org/2000/svg"
   id="svg1299"
   version="1.1"
   viewBox="0 0 15.263192 16.950907"
   height="16.950907mm"
   width="15.263192mm">
  <defs
     id="defs1293" />
  <metadata
     id="metadata1296">
    <rdf:RDF>
      <cc:Work
         rdf:about="">
        <dc:format>image/svg+xml</dc:format>
        <dc:type
           rdf:resource="http://purl.org/dc/dcmitype/StillImage" />
        <dc:title></dc:title>
      </cc:Work>
    </rdf:RDF>
  </metadata>
  <g
     transform="translate(-48.561757,-116.62943)"
     id="layer1">
    <g
       style="fill:#ffffff"
       transform="matrix(1.2501591,0,0,-1.2501591,49.105576,125.94937)"
       id="g2668">
      <path
         id="path2670"
         style="fill:#ffffff;fill-opacity:1;fill-rule:nonzero;stroke:none"
         d="m 0,0 h -0.435 c 0,-3.364 2.739,-6.104 6.106,-6.104 3.363,0 6.103,2.74 6.103,6.104 0,3.36 -2.731,6.093 -6.087,6.102 V 7.455 L 2.915,5.854 5.687,4.253 V 5.668 C 8.804,5.659 11.337,3.12 11.337,0 11.337,-3.124 8.795,-5.668 5.671,-5.668 2.545,-5.668 0,-3.124 0,0" />
    </g>
    <g
       style="fill:#ff6600"
       transform="matrix(1.2501591,0,0,-1.2501591,55.595663,122.44173)"
       id="g2672">
      <path
         id="path2674"
         style="fill:#ff6600;fill-opacity:1;fill-rule:nonzero;stroke:none"
         d="M 0,0 V -3.232 L 2.794,-5.989 3.101,-5.68 0.435,-3.05 V 0 Z" />
    </g>
  </g>
</svg>
